<svg version="1.1" xmlns="http://www.w3.org/2000/svg" viewBox="-667.1462932774593 -1255.5584226663523 2138.5606072474466 1750.608523499558"><desc>Created with Snap</desc><defs></defs><g><g transform="matrix(3.8945,0,0,3.8945,-391.6101,-1166.1444)">
<g id="gSl3c19jrv2b4">
	<path d="M317.9281,155.65147c-30.98956,7.31404-46.23932-11.77283-62.95764-64.39297
		c-22.81844-71.81998-97.04111-20.6673-137.30415,34.09873c-36.01472,48.98745-100.43337,28.2066-108.71796,96.60006
		C1.05756,287.09979,51.2933,341.39026,114.88862,347.1629c44.93644,4.07898,74.15717-17.45844,113.5048-32.92603
		c50.53844-19.86673,37.44051-0.93326,86.27327,8.58145c60.94122,11.87393,88.18268-44.41559,84.49582-82.9597
		S385.17041,139.7812,317.9281,155.65147z" fill="#00203f" style=""></path>
</g>


<desc>Created with Snap</desc><defs></defs></g><g><g transform="matrix(0.5,0,0,-0.5,0,0)"><path d="M432 0L145 0Q191 158 191 543Q191 817 143 917Q131 942 116 964L83 1010L430 1010Q415 951 410 916L403 856Q519 1030 698 1030Q878 1030 931 835Q1010 970 1140 1014Q1186 1030 1243 1030Q1301 1030 1347 1005Q1394 981 1426 936Q1489 845 1489 687L1489 580Q1489 274 1497 196Q1506 119 1510 94Q1516 50 1530 0L1235 0Q1279 151 1279 543Q1279 702 1263 756Q1247 811 1221 835Q1196 860 1152 860Q1023 860 947 708L947 580Q947 274 955 196Q964 119 968 94Q974 50 988 0L693 0Q738 154 738 543Q738 706 722 758Q706 811 681 835Q656 860 612 860Q569 860 534 843Q499 826 471 798Q418 746 388 664Q386 635 386 604L386 543Q386 158 432 0ZM910 602L914 620L910 602Z" fill="#adefd1" style=""></path></g></g></g></svg>