<svg id="visual" viewBox="0 0 675 175" width="675" height="175" xmlns="http://www.w3.org/2000/svg" xmlns:xlink="http://www.w3.org/1999/xlink" version="1.1"><path d="M0 115L18.8 122.5C37.7 130 75.3 145 112.8 147.7C150.3 150.3 187.7 140.7 225.2 136.5C262.7 132.3 300.3 133.7 337.8 132.7C375.3 131.7 412.7 128.3 450.2 125C487.7 121.7 525.3 118.3 562.8 123.3C600.3 128.3 637.7 141.7 656.3 148.3L675 155L675 0L656.3 0C637.7 0 600.3 0 562.8 0C525.3 0 487.7 0 450.2 0C412.7 0 375.3 0 337.8 0C300.3 0 262.7 0 225.2 0C187.7 0 150.3 0 112.8 0C75.3 0 37.7 0 18.8 0L0 0Z" fill="#563eef"></path><path d="M0 89L18.8 90.7C37.7 92.3 75.3 95.7 112.8 96.8C150.3 98 187.7 97 225.2 94.5C262.7 92 300.3 88 337.8 86.2C375.3 84.3 412.7 84.7 450.2 88.7C487.7 92.7 525.3 100.3 562.8 100C600.3 99.7 637.7 91.3 656.3 87.2L675 83L675 0L656.3 0C637.7 0 600.3 0 562.8 0C525.3 0 487.7 0 450.2 0C412.7 0 375.3 0 337.8 0C300.3 0 262.7 0 225.2 0C187.7 0 150.3 0 112.8 0C75.3 0 37.7 0 18.8 0L0 0Z" fill="#4327ac"></path><path d="M0 82L18.8 79.8C37.7 77.7 75.3 73.3 112.8 73.2C150.3 73 187.7 77 225.2 74.8C262.7 72.7 300.3 64.3 337.8 64C375.3 63.7 412.7 71.3 450.2 73C487.7 74.7 525.3 70.3 562.8 71.7C600.3 73 637.7 80 656.3 83.5L675 87L675 0L656.3 0C637.7 0 600.3 0 562.8 0C525.3 0 487.7 0 450.2 0C412.7 0 375.3 0 337.8 0C300.3 0 262.7 0 225.2 0C187.7 0 150.3 0 112.8 0C75.3 0 37.7 0 18.8 0L0 0Z" fill="#2c136f"></path><path d="M0 24L18.8 27.8C37.7 31.7 75.3 39.3 112.8 40.5C150.3 41.7 187.7 36.3 225.2 36.2C262.7 36 300.3 41 337.8 40.7C375.3 40.3 412.7 34.7 450.2 35.8C487.7 37 525.3 45 562.8 43.3C600.3 41.7 637.7 30.3 656.3 24.7L675 19L675 0L656.3 0C637.7 0 600.3 0 562.8 0C525.3 0 487.7 0 450.2 0C412.7 0 375.3 0 337.8 0C300.3 0 262.7 0 225.2 0C187.7 0 150.3 0 112.8 0C75.3 0 37.7 0 18.8 0L0 0Z" fill="#160038"></path></svg>